<?xml version="1.0" encoding="UTF-8" standalone="no"?>
<svg
    xmlns:rdf="http://www.w3.org/1999/02/22-rdf-syntax-ns#"
    xmlns="http://www.w3.org/2000/svg"
    xmlns:dc="http://purl.org/dc/elements/1.1/"
    xmlns:svg="http://www.w3.org/2000/svg"
    xmlns:xlink="http://www.w3.org/1999/xlink"
    viewBox="0 0 290.53 293"
    version="1.1"
  >
  <g
      id="layer1"
      transform="translate(-238.35 -372.95)"
    >
    <path
        id="path2268"
        style="opacity:0.97;block-progression:tb;text-indent:0;colaor:#000000;text-transform:none;fill:#000000"
        d="m367.14 372.95-0.14952 25.16c-71.035 0.64205-128.64 58.658-128.64 129.84 0 54.024 33.219 100.43 80.271 119.96l-0.14952 14.826a2.9203 2.9203 0 0 0 5.8406 0l0.14952-12.58c13.663 4.8996 28.405 7.6378 43.73 7.6378 15.442 0 30.129-2.8162 43.88-7.7875v13.029a2.9203 2.9203 0 0 0 5.8406 0v-15.126c26.206-10.915 48.064-30.241 62.3-54.513l44.029-0.29952a2.8757 2.8757 0 1 0 0 -5.6909l-40.884 0.14952c9.0778-17.464 14.44-37.161 14.676-58.107l30.701 0.14976 0.14952-4.7923-30.851-0.14976c-1.71-68.56-56.96-124.02-125.36-126.4l0.14952-25.309h-5.6909zm-0.14952 42.232-0.14952 53.015-37.44 0.14976a7.1892 7.1892 0 1 0 0.14952 14.377l77.276-0.44928a7.1892 7.1892 0 1 0 0 -14.377l-34.295 0.14976 0.14952-52.715c59.177 2.2978 106.36 49.86 108.13 109.17l-30.102-0.14976v-2.5459l-18.42 0.14976v9.1353h18.42v-1.9469l30.251 0.14976c-0.24968 21.451-6.4889 41.452-17.073 58.406l-22.015 0.14952a8.5458 8.5458 0 0 0 -0.59904 -1.6474c-14.062-25.783-41.434-43.131-72.783-43.131-31.768 0-59.493 17.826-73.382 44.179a8.4904 8.4904 0 1 0 14.976 7.9373c11.038-20.943 33.029-35.194 58.406-35.194 25.042 0 46.63 13.951 57.807 34.445a8.5458 8.5458 0 0 0 15.425 -0.89856l18.271-0.14952c-10.853 15.228-25.282 27.664-42.232 35.942v-28.155a2.8757 2.8757 0 0 0 -0.29952 -1.3478c-9.482-17.738-28.238-29.802-49.72-29.802-20.382 0-38.198 10.846-48.073 27.107a2.8757 2.8757 0 0 0 -0.44904 1.4976l-0.29952 30.851c-37.646-18.243-63.498-56.802-63.498-101.54 0-62.004 49.722-112.13 111.57-112.77zm-26.657 106.78-18.42 0.14976v9.1353h18.42v-9.2851zm9.1353 0 0.14953 9.2851h18.271v-9.2851h-18.42zm27.706 0v9.2851l18.42-0.14976v-9.1353h-18.42zm27.556 0v9.1353h18.42v-9.1353h-18.42zm-110.37 0.14976v9.1353h18.42v-9.1353h-18.42zm73.382 53.614c19.135 0 35.739 10.697 44.329 26.358v29.802c-13.497 5.6968-28.279 8.8358-43.88 8.8358-15.432 0-30.2-3.1058-43.58-8.6861l0.29952-32.498c8.9429-14.247 24.761-23.812 42.831-23.812z"
    />
  </g>
</svg>
